<?xml version="1.0" standalone="no"?>
<!DOCTYPE svg PUBLIC "-//W3C//DTD SVG 20010904//EN"
 "http://www.w3.org/TR/2001/REC-SVG-20010904/DTD/svg10.dtd">
<svg version="1.0" xmlns="http://www.w3.org/2000/svg"
 width="256.000000pt" height="256.000000pt" viewBox="0 0 256.000000 256.000000"
 preserveAspectRatio="xMidYMid meet">
<metadata>
Created by potrace 1.11, written by Peter Selinger 2001-2013
</metadata>
<g transform="translate(0.000000,256.000000) scale(0.100000,-0.100000)"
fill="#000000" stroke="none">
<path d="M359 2451 c-20 -9 -47 -25 -60 -36 -28 -23 -69 -89 -69 -111 0 -8 -7
-14 -16 -14 -19 0 -81 -36 -105 -60 -104 -106 -29 -308 119 -323 23 -2 46 1
52 7 5 5 10 7 10 2 0 -9 57 23 85 47 17 16 21 16 31 2 6 -8 14 -15 18 -15 4 0
14 -6 21 -14 12 -12 12 -18 -5 -39 -11 -13 -16 -27 -13 -31 3 -3 1 -6 -5 -6
-7 0 -20 -18 -29 -40 -10 -22 -21 -40 -25 -40 -3 0 -9 -13 -13 -30 -4 -16 -11
-30 -16 -30 -6 0 -8 -4 -5 -8 3 -5 -1 -21 -9 -35 -8 -15 -14 -30 -15 -32 0 -3
-1 -7 -1 -10 -1 -3 -3 -9 -4 -15 -1 -5 -3 -11 -5 -12 -6 -8 -30 -127 -35 -176
-5 -40 -12 -52 -31 -52 -8 0 -14 -5 -14 -11 0 -5 -4 -7 -10 -4 -5 3 -10 2 -10
-4 0 -6 12 -17 27 -25 22 -11 28 -22 29 -52 4 -69 15 -158 21 -179 4 -11 8
-29 9 -40 0 -11 4 -27 7 -35 3 -8 18 -49 33 -90 15 -41 39 -95 53 -120 15 -25
33 -57 40 -72 8 -16 18 -28 23 -28 4 0 8 -7 8 -15 0 -8 5 -15 10 -15 6 0 10
-5 10 -11 0 -7 8 -18 18 -25 16 -12 15 -14 -7 -38 -25 -26 -51 -34 -51 -16 0
6 -7 10 -16 10 -8 0 -12 4 -9 10 5 9 -9 14 -18 8 -2 -2 -11 3 -19 9 -8 7 -36
14 -62 16 -99 9 -176 -62 -189 -172 -10 -89 32 -156 125 -199 35 -16 48 -28
53 -50 3 -16 22 -46 41 -66 41 -43 123 -83 134 -65 5 6 10 7 13 2 7 -12 67 -4
67 8 0 5 4 8 9 7 12 -4 79 50 92 73 14 28 28 109 18 109 -5 0 -9 7 -9 16 0 17
-37 84 -53 95 -12 8 50 59 73 59 10 0 20 -7 24 -15 3 -8 12 -15 21 -15 8 0 15
-3 15 -7 0 -5 19 -17 43 -28 23 -11 44 -23 47 -26 5 -6 194 -79 205 -79 4 0
13 -6 20 -12 32 -29 44 -37 83 -57 51 -26 182 -48 182 -31 0 3 8 6 18 6 37 2
76 14 84 26 4 7 8 9 8 5 0 -5 23 8 50 28 28 21 54 35 57 31 3 -3 11 -2 17 3 6
6 24 11 38 13 15 2 30 7 34 11 4 4 13 7 20 7 18 0 127 52 136 65 4 5 8 6 8 1
0 -4 16 4 35 18 19 15 35 24 35 20 0 -4 8 1 19 10 17 16 20 15 50 -10 l31 -26
-20 -28 c-11 -15 -20 -33 -20 -38 0 -6 -4 -12 -9 -14 -16 -5 -23 -89 -10 -122
15 -39 85 -103 122 -112 63 -14 93 -10 142 16 52 28 105 90 108 127 0 12 4 21
7 20 15 -5 124 61 133 80 6 13 13 23 17 23 8 0 11 17 12 83 1 68 -6 92 -38
134 -59 77 -168 89 -251 27 -36 -27 -63 -31 -63 -9 0 8 -5 15 -11 15 -6 0 0
13 13 29 51 65 60 77 71 98 5 13 14 23 19 23 4 0 8 6 8 14 0 8 3 16 8 18 6 3
44 73 47 88 0 3 6 15 13 28 7 12 11 22 8 22 -3 0 2 17 10 37 9 20 18 46 21 57
8 38 11 51 13 51 6 0 21 117 24 199 2 43 8 62 21 72 17 13 17 14 -3 31 -13 11
-22 35 -26 63 -6 52 -19 120 -26 140 -1 3 -3 10 -5 15 -1 6 -3 13 -5 18 -1 4
-3 10 -5 15 -1 4 -5 15 -8 24 -4 10 -10 26 -14 35 -3 10 -7 20 -7 23 -5 19
-32 70 -38 70 -4 0 -5 6 -2 14 3 7 -2 16 -10 19 -9 4 -16 13 -16 22 0 8 -5 15
-12 15 -6 0 -9 3 -5 6 3 3 -8 24 -24 47 -29 40 -29 41 -10 60 19 19 19 19 39
-1 48 -48 125 -67 185 -46 106 37 158 161 112 269 -13 28 -56 75 -70 75 -7 0
-18 7 -25 15 -7 8 -16 12 -21 10 -12 -8 -51 33 -44 45 4 6 1 10 -4 10 -6 0
-11 7 -11 15 0 8 -12 26 -28 40 -15 14 -34 32 -43 40 -9 8 -23 15 -32 15 -9 0
-18 4 -21 9 -8 12 -92 7 -128 -7 -15 -6 -43 -27 -62 -46 -33 -31 -41 -46 -37
-68 0 -5 -3 -8 -8 -8 -26 0 8 -118 46 -162 13 -15 13 -19 -6 -40 -19 -19 -23
-20 -31 -8 -5 8 -10 11 -10 7 0 -4 -12 4 -27 18 -15 14 -33 25 -40 25 -7 0
-13 4 -13 10 0 5 -11 12 -25 16 -14 3 -25 10 -25 16 0 5 -4 6 -10 3 -5 -3 -10
-2 -10 2 0 12 -175 84 -235 98 -11 2 -31 6 -44 9 -79 17 -331 29 -331 15 0 -3
-10 -5 -22 -4 -13 1 -36 -2 -53 -7 -16 -5 -39 -11 -50 -13 -11 -2 -31 -6 -45
-10 -14 -3 -30 -7 -36 -8 -19 -4 -169 -71 -174 -78 -3 -3 -15 -9 -27 -13 -13
-4 -23 -12 -23 -17 0 -5 -7 -9 -15 -9 -8 0 -15 -4 -15 -10 0 -5 -7 -10 -15
-10 -9 0 -18 -7 -21 -15 -4 -8 -11 -15 -17 -15 -6 0 -21 -9 -33 -21 l-22 -21
-32 30 -31 30 32 47 c37 54 47 135 22 161 -8 8 -11 14 -7 14 4 0 -5 13 -21 30
-58 61 -148 82 -216 51z"/>
</g>
</svg>
